# xmcd
#
# Track frame offsets: 
#        150
#        18896
#        39798
#        63103
#        78956
#        102292
#        128084
#        148394
#        171870
#        196777
#        216727
#
# Disc length: 3135 seconds
#
# Revision: 1
# Processed by: cddbd v1.5.2PL0 Copyright (c) Steve Scherf et al.
# Submitted via: ExactAudioCopy v1.0b3
#
DISCID=920c3d0b
DTITLE=Billy Flynn - Blues Drive - [CD1]
DYEAR=2009
DGENRE=Blues
TTITLE0=Blues Drive
TTITLE1=Hearts On Fire
TTITLE2=Big Money Problems
TTITLE3=Blue Mood
TTITLE4=I'm Hooked
TTITLE5=Time Has Told Me
TTITLE6=First Stage Of The Blues
TTITLE7=It Could Happen To You
TTITLE8=Nite Blues
TTITLE9=Shakin The Boogie
TTITLE10=Blues Thru The Winter Time
EXTD=
EXTT0=
EXTT1=
EXTT2=
EXTT3=
EXTT4=
EXTT5=
EXTT6=
EXTT7=
EXTT8=
EXTT9=
EXTT10=
PLAYORDER=
